<?xml version="1.0" standalone="no"?>
<!DOCTYPE svg PUBLIC "-//W3C//DTD SVG 20010904//EN"
 "http://www.w3.org/TR/2001/REC-SVG-20010904/DTD/svg10.dtd">
<svg version="1.0" xmlns="http://www.w3.org/2000/svg"
 width="512.000000pt" height="512.000000pt" viewBox="0 0 512.000000 512.000000"
 preserveAspectRatio="xMidYMid meet">
<metadata>
Created by potrace 1.14, written by Peter Selinger 2001-2017
</metadata>
<g transform="translate(0.000000,512.000000) scale(0.100000,-0.100000)"
fill="#000000" stroke="none">
<path d="M4156 4553 c-112 -32 -1629 -569 -1661 -587 -55 -33 -102 -87 -134
-156 -21 -45 -26 -69 -26 -135 1 -79 6 -95 278 -873 152 -437 286 -813 296
-837 26 -59 100 -131 165 -161 66 -30 156 -40 216 -24 86 23 1612 555 1650
575 56 29 110 88 142 153 30 60 33 75 32 152 -1 85 -3 89 -283 889 -154 442
-292 823 -306 846 -55 94 -163 156 -279 161 -39 2 -79 0 -90 -3z m-8 -488
c135 -57 164 -234 55 -337 -36 -34 -77 -50 -130 -50 -62 0 -105 18 -146 60
-44 45 -57 78 -57 143 0 143 146 239 278 184z m-1021 -388 c56 -39 86 -97 86
-166 0 -64 -17 -102 -65 -148 -41 -40 -76 -53 -137 -53 -64 0 -128 34 -166 88
-26 38 -30 52 -30 112 0 60 4 74 30 112 43 62 103 90 181 86 47 -3 71 -10 101
-31z m1430 -693 c111 -88 109 -248 -5 -328 -109 -77 -269 -21 -307 107 -26 89
9 184 88 232 37 23 51 26 114 23 62 -3 77 -7 110 -34z m-1068 -362 c122 -75
123 -252 3 -336 -37 -26 -53 -31 -105 -31 -78 0 -131 26 -172 84 -27 38 -30
51 -30 115 0 60 4 78 24 108 66 96 182 121 280 60z"/>
<path d="M259 2886 c-102 -27 -181 -95 -228 -196 l-26 -55 0 -910 0 -910 28
-55 c37 -72 96 -131 165 -166 l57 -29 889 -3 c788 -2 895 -1 944 13 102 30
173 92 221 195 l26 55 0 905 0 905 -33 67 c-38 77 -92 130 -171 167 l-56 26
-885 2 c-680 1 -896 -1 -931 -11z m429 -411 c76 -32 122 -102 122 -185 0 -67
-18 -107 -68 -152 -45 -41 -88 -53 -163 -46 -55 6 -87 25 -133 82 -58 71 -45
197 26 263 54 51 145 67 216 38z m1120 0 c143 -60 164 -250 39 -349 -36 -29
-45 -31 -116 -31 -88 0 -128 20 -172 83 -20 30 -24 48 -24 113 0 71 2 80 31
116 59 74 159 102 242 68z m-549 -601 c77 -39 106 -87 106 -179 0 -61 -4 -77
-27 -112 -37 -56 -121 -98 -183 -91 -105 12 -176 85 -183 187 -12 163 141 267
287 195z m-561 -523 c137 -70 152 -246 29 -345 -50 -40 -143 -49 -203 -18
-154 79 -153 284 1 365 42 23 127 21 173 -2z m1120 0 c70 -36 112 -104 112
-181 0 -112 -88 -200 -200 -200 -67 0 -107 18 -152 68 -41 45 -53 88 -46 163
13 127 169 210 286 150z"/>
</g>
</svg>
